<svg width="22" height="22" viewBox="0 0 22 22" fill="none" xmlns="http://www.w3.org/2000/svg">
<path d="M11.8611 0.750046C11.8611 0.750046 14.3055 0.972268 17.4166 4.08338C20.5278 7.19449 20.75 9.63894 20.75 9.63894" stroke="#78D864" stroke-width="1.5" stroke-linecap="round"/>
<path d="M12.0911 4.67854C12.0911 4.67854 13.191 4.99281 14.8409 6.64273C16.4908 8.29264 16.8051 9.39259 16.8051 9.39259" stroke="#78D864" stroke-width="1.5" stroke-linecap="round"/>
<path d="M7.45843 4.43468L8.17956 5.72682C8.83034 6.89292 8.56909 8.42263 7.54412 9.4476C7.54412 9.4476 6.30086 10.6909 8.55502 12.945C10.8091 15.1991 12.0524 13.9559 12.0524 13.9559C13.0774 12.931 14.6071 12.6697 15.7732 13.3205L17.0654 14.0416C18.8262 15.0243 19.0341 17.4936 17.4864 19.0414C16.5564 19.9714 15.4171 20.695 14.1577 20.7428C12.0375 20.8231 8.43698 20.2866 4.82523 16.6748C1.21348 13.0631 0.676905 9.46252 0.75728 7.34236C0.805024 6.08293 1.52867 4.94364 2.45867 4.01364C4.00639 2.46591 6.47575 2.67386 7.45843 4.43468Z" stroke="#78D864" stroke-width="1.5" stroke-linecap="round"/>
</svg>
