<svg width="22" height="22" viewBox="0 0 22 22" fill="none" xmlns="http://www.w3.org/2000/svg">
<path d="M10.75 6.30556V10.75L13.5278 13.5278" stroke="#78D864" stroke-width="1.5" stroke-linecap="round" stroke-linejoin="round"/>
<path d="M3.64349 3.6435L3.11316 3.11317V3.11317L3.64349 3.6435ZM2.2364 5.05059L1.48641 5.05436C1.48848 5.46562 1.82136 5.79851 2.23263 5.80058L2.2364 5.05059ZM5.06102 5.81479C5.47523 5.81687 5.8127 5.48278 5.81478 5.06857C5.81686 4.65436 5.48277 4.31689 5.06856 4.31481L5.06479 5.0648L5.06102 5.81479ZM2.97218 2.21843C2.9701 1.80422 2.63263 1.47012 2.21842 1.4722C1.80421 1.47429 1.47012 1.81176 1.4722 2.22596L2.22219 2.2222L2.97218 2.21843ZM1.58589 9.3886C1.64214 8.97822 1.35506 8.59995 0.944688 8.5437C0.534312 8.48745 0.156036 8.77453 0.0997862 9.1849L0.842839 9.28675L1.58589 9.3886ZM17.7854 3.71456L18.3158 3.18423C14.1031 -1.02844 7.29664 -1.07031 3.11316 3.11317L3.64349 3.6435L4.17382 4.17383C7.76148 0.586163 13.6182 0.607931 17.2551 4.24489L17.7854 3.71456ZM3.71455 17.7855L3.18422 18.3158C7.3969 22.5285 14.2034 22.5703 18.3868 18.3868L17.8565 17.8565L17.3262 17.3262C13.7385 20.9139 7.88185 20.8921 4.24488 17.2551L3.71455 17.7855ZM17.8565 17.8565L18.3868 18.3868C22.5703 14.2034 22.5284 7.39691 18.3158 3.18423L17.7854 3.71456L17.2551 4.24489C20.8921 7.88186 20.9138 13.7385 17.3262 17.3262L17.8565 17.8565ZM3.64349 3.6435L3.11316 3.11317L1.70607 4.52026L2.2364 5.05059L2.76673 5.58092L4.17382 4.17383L3.64349 3.6435ZM2.2364 5.05059L2.23263 5.80058L5.06102 5.81479L5.06479 5.0648L5.06856 4.31481L2.24017 4.3006L2.2364 5.05059ZM2.2364 5.05059L2.98639 5.04682L2.97218 2.21843L2.22219 2.2222L1.4722 2.22596L1.48641 5.05436L2.2364 5.05059ZM0.842839 9.28675L0.0997862 9.1849C-0.342835 12.4141 0.687906 15.8195 3.18422 18.3158L3.71455 17.7855L4.24488 17.2551C2.09184 15.1021 1.20473 12.1694 1.58589 9.3886L0.842839 9.28675Z" fill="#78D864"/>
</svg>
